<svg width="38" height="50" viewBox="0 0 38 50" fill="none" xmlns="http://www.w3.org/2000/svg">
<g clip-path="url(#clip0)">
<path d="M37.3 50H0.700003C0.512659 49.9976 0.333872 49.9212 0.202707 49.7874C0.0715429 49.6536 -0.00133352 49.4734 2.79985e-06 49.286V0.714C-0.00133352 0.526646 0.0715429 0.34638 0.202707 0.212592C0.333872 0.0788048 0.512659 0.00237355 0.700003 0H37.3C37.4873 0.00237355 37.6661 0.0788048 37.7973 0.212592C37.9285 0.34638 38.0013 0.526646 38 0.714V49.286C38.0013 49.4734 37.9285 49.6536 37.7973 49.7874C37.6661 49.9212 37.4873 49.9976 37.3 50ZM1.407 48.571H36.593V1.429H1.407V48.571Z" fill="black"/>
<path d="M31.879 9.70899H6.121C5.93416 9.70899 5.75497 9.63476 5.62285 9.50264C5.49073 9.37053 5.4165 9.19133 5.4165 9.00449C5.4165 8.81764 5.49073 8.63845 5.62285 8.50633C5.75497 8.37421 5.93416 8.29999 6.121 8.29999H31.879C32.0658 8.29999 32.245 8.37421 32.3772 8.50633C32.5093 8.63845 32.5835 8.81764 32.5835 9.00449C32.5835 9.19133 32.5093 9.37053 32.3772 9.50264C32.245 9.63476 32.0658 9.70899 31.879 9.70899V9.70899Z" fill="black"/>
<path d="M31.879 17.024H6.121C5.93416 17.024 5.75497 16.9498 5.62285 16.8176C5.49073 16.6855 5.4165 16.5063 5.4165 16.3195C5.4165 16.1326 5.49073 15.9535 5.62285 15.8213C5.75497 15.6892 5.93416 15.615 6.121 15.615H31.879C32.0658 15.615 32.245 15.6892 32.3772 15.8213C32.5093 15.9535 32.5835 16.1326 32.5835 16.3195C32.5835 16.5063 32.5093 16.6855 32.3772 16.8176C32.245 16.9498 32.0658 17.024 31.879 17.024V17.024Z" fill="black"/>
<path d="M31.879 24.222H6.121C5.93416 24.222 5.75497 24.1478 5.62285 24.0156C5.49073 23.8835 5.4165 23.7043 5.4165 23.5175C5.4165 23.3306 5.49073 23.1515 5.62285 23.0193C5.75497 22.8872 5.93416 22.813 6.121 22.813H31.879C32.0658 22.813 32.245 22.8872 32.3772 23.0193C32.5093 23.1515 32.5835 23.3306 32.5835 23.5175C32.5835 23.7043 32.5093 23.8835 32.3772 24.0156C32.245 24.1478 32.0658 24.222 31.879 24.222Z" fill="black"/>
<path d="M31.879 31.421H6.121C5.93416 31.421 5.75497 31.3468 5.62285 31.2147C5.49073 31.0826 5.4165 30.9034 5.4165 30.7165C5.4165 30.5297 5.49073 30.3505 5.62285 30.2184C5.75497 30.0862 5.93416 30.012 6.121 30.012H31.879C32.0658 30.012 32.245 30.0862 32.3772 30.2184C32.5093 30.3505 32.5835 30.5297 32.5835 30.7165C32.5835 30.9034 32.5093 31.0826 32.3772 31.2147C32.245 31.3468 32.0658 31.421 31.879 31.421Z" fill="black"/>
<path d="M15.94 44.144C15.7945 44.1441 15.6496 44.1273 15.508 44.094C15.1896 44.0213 14.8961 43.8654 14.6575 43.6423C14.419 43.4192 14.2438 43.1369 14.15 42.824L13.906 42.035L12.544 43.244C12.2352 43.5268 11.8719 43.7436 11.4765 43.8811C11.081 44.0187 10.6616 44.0741 10.244 44.044C9.92787 44.0218 9.62001 43.933 9.34064 43.7834C9.06127 43.6338 8.8167 43.4268 8.623 43.176C7.72013 43.5127 6.78429 43.7534 5.83099 43.894C5.73907 43.906 5.64568 43.8998 5.55615 43.8757C5.46662 43.8516 5.38272 43.8102 5.30922 43.7537C5.23572 43.6972 5.17407 43.6267 5.12779 43.5464C5.08151 43.4661 5.05151 43.3774 5.03949 43.2855C5.02748 43.1936 5.03369 43.1002 5.05776 43.0107C5.08184 42.9211 5.12331 42.8372 5.17982 42.7637C5.23632 42.6902 5.30675 42.6286 5.38708 42.5823C5.46741 42.536 5.55607 42.506 5.64799 42.494C6.4727 42.3615 7.28322 42.1523 8.06899 41.869C8.02593 41.6383 8.00782 41.4036 8.01499 41.169C8.06536 40.4952 8.26825 39.8417 8.60832 39.2579C8.9484 38.6741 9.41676 38.1752 9.97799 37.799C10.2171 37.6386 10.4959 37.5476 10.7836 37.5362C11.0713 37.5248 11.3565 37.5933 11.6075 37.7342C11.8586 37.8751 12.0656 38.0829 12.2057 38.3344C12.3458 38.5859 12.4134 38.8714 12.401 39.159C12.3322 39.8803 12.075 40.5709 11.6551 41.1615C11.2353 41.7521 10.6676 42.2219 10.009 42.524C10.1246 42.5846 10.251 42.6216 10.381 42.633C10.606 42.6455 10.8312 42.6118 11.0427 42.5341C11.2542 42.4564 11.4476 42.3362 11.611 42.181L12.979 40.976C13.1555 40.8215 13.3678 40.7136 13.5966 40.6619C13.8254 40.6103 14.0635 40.6166 14.2893 40.6802C14.515 40.7439 14.7213 40.8629 14.8894 41.0265C15.0576 41.1901 15.1822 41.3931 15.252 41.617L15.495 42.405C15.5186 42.4811 15.5617 42.5496 15.62 42.6038C15.6783 42.658 15.7499 42.6961 15.8274 42.7141C15.905 42.7321 15.9859 42.7294 16.0622 42.7064C16.1384 42.6834 16.2073 42.6409 16.262 42.583L17.497 41.276C17.7367 41.0235 18.0444 40.846 18.3829 40.7649C18.7215 40.6838 19.0763 40.7025 19.4043 40.819C19.7324 40.9354 20.0197 41.1444 20.2314 41.4208C20.443 41.6971 20.5701 42.0289 20.597 42.376L20.61 42.535C20.6172 42.6273 20.6061 42.72 20.5774 42.808C20.5487 42.896 20.5029 42.9774 20.4428 43.0477C20.3826 43.118 20.3092 43.1757 20.2267 43.2177C20.1442 43.2596 20.0542 43.2848 19.962 43.292C19.8697 43.2992 19.777 43.2881 19.689 43.2594C19.601 43.2307 19.5196 43.1849 19.4493 43.1248C19.379 43.0646 19.3212 42.9912 19.2793 42.9087C19.2374 42.8262 19.2122 42.7362 19.205 42.644L19.192 42.485C19.1868 42.4095 19.1597 42.3372 19.114 42.2769C19.0683 42.2167 19.0059 42.1711 18.9346 42.1458C18.8633 42.1205 18.7862 42.1166 18.7127 42.1346C18.6392 42.1526 18.5726 42.1916 18.521 42.247L17.292 43.555C17.1197 43.74 16.9112 43.8877 16.6795 43.9888C16.4478 44.09 16.1978 44.1424 15.945 44.143L15.94 44.144ZM10.84 38.944C10.8101 38.9443 10.781 38.9541 10.757 38.972C10.3768 39.2248 10.0588 39.5605 9.82689 39.9538C9.59498 40.3472 9.45518 40.7879 9.41799 41.243C9.84013 41.0496 10.2061 40.752 10.4815 40.3781C10.7568 40.0043 10.9325 39.5665 10.992 39.106C10.994 39.0775 10.9877 39.049 10.9739 39.0239C10.96 38.9989 10.9392 38.9785 10.914 38.965C10.8926 38.9518 10.8681 38.9445 10.843 38.944H10.84Z" fill="black"/>
<path d="M32.362 42.952H27.018C26.8312 42.952 26.652 42.8777 26.5199 42.7456C26.3877 42.6135 26.3135 42.4343 26.3135 42.2475C26.3135 42.0606 26.3877 41.8814 26.5199 41.7493C26.652 41.6172 26.8312 41.543 27.018 41.543H32.362C32.5489 41.543 32.728 41.6172 32.8602 41.7493C32.9923 41.8814 33.0665 42.0606 33.0665 42.2475C33.0665 42.4343 32.9923 42.6135 32.8602 42.7456C32.728 42.8777 32.5489 42.952 32.362 42.952V42.952Z" fill="black"/>
</g>
<defs>
<clipPath id="clip0">
<rect width="38" height="50" fill="white"/>
</clipPath>
</defs>
</svg>
