<svg width="50" height="50" viewBox="0 0 50 50" fill="none" xmlns="http://www.w3.org/2000/svg">
<g clip-path="url(#clip0)">
<path d="M47.857 50.001H2.143C1.57481 50.001 1.02989 49.7753 0.628024 49.3737C0.226162 48.972 0.000265136 48.4272 0 47.859V15.001C0 14.8116 0.0752248 14.63 0.209126 14.4961C0.343027 14.3622 0.524635 14.287 0.714 14.287H49.286C49.4754 14.287 49.657 14.3622 49.7909 14.4961C49.9248 14.63 50 14.8116 50 15.001V47.859C49.9997 48.4272 49.7738 48.972 49.372 49.3737C48.9701 49.7753 48.4252 50.001 47.857 50.001ZM1.429 15.716V47.859C1.429 48.0484 1.50422 48.23 1.63813 48.3639C1.77203 48.4978 1.95364 48.573 2.143 48.573H47.857C48.0464 48.573 48.228 48.4978 48.3619 48.3639C48.4958 48.23 48.571 48.0484 48.571 47.859V15.716H1.429Z" fill="black"/>
<path d="M49.286 15.715H0.714C0.524635 15.715 0.343027 15.6397 0.209126 15.5058C0.0752248 15.3719 0 15.1903 0 15.001V6.83697C0 6.26861 0.22578 5.72353 0.62767 5.32164C1.02956 4.91975 1.57464 4.69397 2.143 4.69397H9.414C9.6035 4.69397 9.78523 4.76925 9.91923 4.90324C10.0532 5.03724 10.1285 5.21897 10.1285 5.40847C10.1285 5.59797 10.0532 5.7797 9.91923 5.9137C9.78523 6.04769 9.6035 6.12297 9.414 6.12297H2.143C2.04924 6.12297 1.95639 6.14144 1.86976 6.17732C1.78314 6.2132 1.70443 6.2658 1.63813 6.3321C1.57182 6.3984 1.51923 6.47711 1.48335 6.56373C1.44747 6.65036 1.429 6.74321 1.429 6.83697V14.287H48.572V6.83697C48.5719 6.74321 48.5533 6.65039 48.5173 6.56381C48.4813 6.47723 48.4286 6.3986 48.3622 6.33239C48.2958 6.26618 48.217 6.2137 48.1303 6.17794C48.0436 6.14218 47.9508 6.12384 47.857 6.12397H40.586C40.3965 6.12397 40.2148 6.04869 40.0808 5.9147C39.9468 5.7807 39.8715 5.59897 39.8715 5.40947C39.8715 5.21997 39.9468 5.03824 40.0808 4.90424C40.2148 4.77025 40.3965 4.69497 40.586 4.69497H47.857C48.4252 4.69497 48.9701 4.92061 49.372 5.32229C49.7738 5.72396 49.9997 6.26878 50 6.83697V15.001C50 15.1903 49.9248 15.3719 49.7909 15.5058C49.657 15.6397 49.4754 15.715 49.286 15.715Z" fill="black"/>
<path d="M36.2 6.12395H13.8C13.6105 6.12395 13.4288 6.04867 13.2948 5.91467C13.1608 5.78068 13.0855 5.59894 13.0855 5.40945C13.0855 5.21995 13.1608 5.03821 13.2948 4.90422C13.4288 4.77022 13.6105 4.69495 13.8 4.69495H36.2C36.3895 4.69495 36.5712 4.77022 36.7052 4.90422C36.8392 5.03821 36.9145 5.21995 36.9145 5.40945C36.9145 5.59894 36.8392 5.78068 36.7052 5.91467C36.5712 6.04867 36.3895 6.12395 36.2 6.12395Z" fill="black"/>
<path d="M38.393 10.81C37.6221 10.8092 36.883 10.5023 36.3383 9.95682C35.7936 9.41134 35.4877 8.67188 35.488 7.90097V2.90097C35.488 2.13052 35.794 1.39162 36.3388 0.846826C36.8836 0.302033 37.6225 -0.00402832 38.393 -0.00402832C39.1634 -0.00402832 39.9023 0.302033 40.4471 0.846826C40.9919 1.39162 41.298 2.13052 41.298 2.90097V7.90097C41.2982 8.67188 40.9924 9.41134 40.4477 9.95682C39.9029 10.5023 39.1639 10.8092 38.393 10.81ZM38.393 1.42897C38.0024 1.4295 37.6279 1.58462 37.3513 1.86045C37.0747 2.13627 36.9186 2.51037 36.917 2.90097V7.90097C36.917 8.29256 37.0725 8.66812 37.3494 8.94501C37.6263 9.22191 38.0019 9.37747 38.3935 9.37747C38.7851 9.37747 39.1606 9.22191 39.4375 8.94501C39.7144 8.66812 39.87 8.29256 39.87 7.90097V2.90097C39.8694 2.50967 39.7138 2.13456 39.4371 1.85787C39.1604 1.58118 38.7853 1.4255 38.394 1.42497L38.393 1.42897Z" fill="black"/>
<path d="M11.607 10.81C10.8361 10.8092 10.0971 10.5023 9.55235 9.95682C9.00761 9.41134 8.70176 8.67188 8.70203 7.90097V2.90097C8.70203 2.13052 9.00809 1.39162 9.55288 0.846826C10.0977 0.302033 10.8366 -0.00402832 11.607 -0.00402832C12.3775 -0.00402832 13.1164 0.302033 13.6612 0.846826C14.206 1.39162 14.512 2.13052 14.512 2.90097V7.90097C14.5112 8.67118 14.2049 9.40962 13.6603 9.95424C13.1157 10.4989 12.3772 10.8052 11.607 10.806V10.81ZM11.607 1.42897C11.2164 1.4295 10.8419 1.58462 10.5653 1.86045C10.2888 2.13627 10.1326 2.51037 10.131 2.90097V7.90097C10.131 8.29256 10.2866 8.66812 10.5635 8.94501C10.8404 9.22191 11.2159 9.37747 11.6075 9.37747C11.9991 9.37747 12.3747 9.22191 12.6516 8.94501C12.9285 8.66812 13.084 8.29256 13.084 7.90097V2.90097C13.0824 2.5102 12.9262 2.13595 12.6494 1.8601C12.3726 1.58424 11.9978 1.42923 11.607 1.42897Z" fill="black"/>
<path d="M41.979 22.591H40.309C40.1195 22.591 39.9378 22.5157 39.8038 22.3817C39.6698 22.2477 39.5945 22.066 39.5945 21.8765C39.5945 21.687 39.6698 21.5053 39.8038 21.3713C39.9378 21.2373 40.1195 21.162 40.309 21.162H41.979C42.1685 21.162 42.3502 21.2373 42.4842 21.3713C42.6182 21.5053 42.6935 21.687 42.6935 21.8765C42.6935 22.066 42.6182 22.2477 42.4842 22.3817C42.3502 22.5157 42.1685 22.591 41.979 22.591Z" fill="black"/>
<path d="M33.907 22.591H32.237C32.0475 22.591 31.8658 22.5157 31.7318 22.3817C31.5978 22.2477 31.5225 22.066 31.5225 21.8765C31.5225 21.687 31.5978 21.5053 31.7318 21.3713C31.8658 21.2373 32.0475 21.162 32.237 21.162H33.907C34.0965 21.162 34.2783 21.2373 34.4123 21.3713C34.5462 21.5053 34.6215 21.687 34.6215 21.8765C34.6215 22.066 34.5462 22.2477 34.4123 22.3817C34.2783 22.5157 34.0965 22.591 33.907 22.591Z" fill="black"/>
<path d="M25.835 22.591H24.165C23.9755 22.591 23.7938 22.5157 23.6598 22.3817C23.5258 22.2477 23.4505 22.066 23.4505 21.8765C23.4505 21.687 23.5258 21.5053 23.6598 21.3713C23.7938 21.2373 23.9755 21.162 24.165 21.162H25.835C26.0245 21.162 26.2062 21.2373 26.3402 21.3713C26.4742 21.5053 26.5495 21.687 26.5495 21.8765C26.5495 22.066 26.4742 22.2477 26.3402 22.3817C26.2062 22.5157 26.0245 22.591 25.835 22.591Z" fill="black"/>
<path d="M41.979 29.436H40.309C40.1195 29.436 39.9378 29.3607 39.8038 29.2267C39.6698 29.0927 39.5945 28.911 39.5945 28.7215C39.5945 28.532 39.6698 28.3502 39.8038 28.2162C39.9378 28.0822 40.1195 28.007 40.309 28.007H41.979C42.1685 28.007 42.3502 28.0822 42.4842 28.2162C42.6182 28.3502 42.6935 28.532 42.6935 28.7215C42.6935 28.911 42.6182 29.0927 42.4842 29.2267C42.3502 29.3607 42.1685 29.436 41.979 29.436Z" fill="black"/>
<path d="M33.907 29.436H32.237C32.0475 29.436 31.8658 29.3607 31.7318 29.2267C31.5978 29.0927 31.5225 28.911 31.5225 28.7215C31.5225 28.532 31.5978 28.3502 31.7318 28.2162C31.8658 28.0822 32.0475 28.007 32.237 28.007H33.907C34.0965 28.007 34.2783 28.0822 34.4123 28.2162C34.5462 28.3502 34.6215 28.532 34.6215 28.7215C34.6215 28.911 34.5462 29.0927 34.4123 29.2267C34.2783 29.3607 34.0965 29.436 33.907 29.436Z" fill="black"/>
<path d="M25.835 29.436H24.165C23.9755 29.436 23.7938 29.3607 23.6598 29.2267C23.5258 29.0927 23.4505 28.911 23.4505 28.7215C23.4505 28.532 23.5258 28.3502 23.6598 28.2162C23.7938 28.0822 23.9755 28.007 24.165 28.007H25.835C26.0245 28.007 26.2062 28.0822 26.3402 28.2162C26.4742 28.3502 26.5495 28.532 26.5495 28.7215C26.5495 28.911 26.4742 29.0927 26.3402 29.2267C26.2062 29.3607 26.0245 29.436 25.835 29.436Z" fill="black"/>
<path d="M17.763 29.436H16.093C15.9035 29.436 15.7217 29.3607 15.5878 29.2267C15.4538 29.0927 15.3785 28.911 15.3785 28.7215C15.3785 28.532 15.4538 28.3502 15.5878 28.2162C15.7217 28.0822 15.9035 28.007 16.093 28.007H17.763C17.9525 28.007 18.1342 28.0822 18.2682 28.2162C18.4022 28.3502 18.4775 28.532 18.4775 28.7215C18.4775 28.911 18.4022 29.0927 18.2682 29.2267C18.1342 29.3607 17.9525 29.436 17.763 29.436Z" fill="black"/>
<path d="M9.68998 29.436H8.01998C7.83048 29.436 7.64875 29.3607 7.51475 29.2267C7.38076 29.0927 7.30548 28.911 7.30548 28.7215C7.30548 28.532 7.38076 28.3502 7.51475 28.2162C7.64875 28.0822 7.83048 28.007 8.01998 28.007H9.68998C9.87948 28.007 10.0612 28.0822 10.1952 28.2162C10.3292 28.3502 10.4045 28.532 10.4045 28.7215C10.4045 28.911 10.3292 29.0927 10.1952 29.2267C10.0612 29.3607 9.87948 29.436 9.68998 29.436Z" fill="black"/>
<path d="M41.979 36.281H40.309C40.1195 36.281 39.9378 36.2057 39.8038 36.0717C39.6698 35.9377 39.5945 35.756 39.5945 35.5665C39.5945 35.377 39.6698 35.1953 39.8038 35.0613C39.9378 34.9273 40.1195 34.852 40.309 34.852H41.979C42.1685 34.852 42.3502 34.9273 42.4842 35.0613C42.6182 35.1953 42.6935 35.377 42.6935 35.5665C42.6935 35.756 42.6182 35.9377 42.4842 36.0717C42.3502 36.2057 42.1685 36.281 41.979 36.281Z" fill="black"/>
<path d="M33.907 36.281H32.237C32.0475 36.281 31.8658 36.2057 31.7318 36.0717C31.5978 35.9377 31.5225 35.756 31.5225 35.5665C31.5225 35.377 31.5978 35.1953 31.7318 35.0613C31.8658 34.9273 32.0475 34.852 32.237 34.852H33.907C34.0965 34.852 34.2783 34.9273 34.4123 35.0613C34.5462 35.1953 34.6215 35.377 34.6215 35.5665C34.6215 35.756 34.5462 35.9377 34.4123 36.0717C34.2783 36.2057 34.0965 36.281 33.907 36.281Z" fill="black"/>
<path d="M25.835 36.281H24.165C23.9755 36.281 23.7938 36.2057 23.6598 36.0717C23.5258 35.9377 23.4505 35.756 23.4505 35.5665C23.4505 35.377 23.5258 35.1953 23.6598 35.0613C23.7938 34.9273 23.9755 34.852 24.165 34.852H25.835C26.0245 34.852 26.2062 34.9273 26.3402 35.0613C26.4742 35.1953 26.5495 35.377 26.5495 35.5665C26.5495 35.756 26.4742 35.9377 26.3402 36.0717C26.2062 36.2057 26.0245 36.281 25.835 36.281Z" fill="black"/>
<path d="M17.763 36.281H16.093C15.9035 36.281 15.7217 36.2057 15.5878 36.0717C15.4538 35.9377 15.3785 35.756 15.3785 35.5665C15.3785 35.377 15.4538 35.1953 15.5878 35.0613C15.7217 34.9273 15.9035 34.852 16.093 34.852H17.763C17.9525 34.852 18.1342 34.9273 18.2682 35.0613C18.4022 35.1953 18.4775 35.377 18.4775 35.5665C18.4775 35.756 18.4022 35.9377 18.2682 36.0717C18.1342 36.2057 17.9525 36.281 17.763 36.281Z" fill="black"/>
<path d="M9.68998 36.281H8.01998C7.83048 36.281 7.64875 36.2057 7.51475 36.0717C7.38076 35.9377 7.30548 35.756 7.30548 35.5665C7.30548 35.377 7.38076 35.1953 7.51475 35.0613C7.64875 34.9273 7.83048 34.852 8.01998 34.852H9.68998C9.87948 34.852 10.0612 34.9273 10.1952 35.0613C10.3292 35.1953 10.4045 35.377 10.4045 35.5665C10.4045 35.756 10.3292 35.9377 10.1952 36.0717C10.0612 36.2057 9.87948 36.281 9.68998 36.281Z" fill="black"/>
<path d="M25.835 43.122H24.165C23.9755 43.122 23.7938 43.0467 23.6598 42.9127C23.5258 42.7787 23.4505 42.597 23.4505 42.4075C23.4505 42.218 23.5258 42.0363 23.6598 41.9023C23.7938 41.7683 23.9755 41.693 24.165 41.693H25.835C26.0245 41.693 26.2062 41.7683 26.3402 41.9023C26.4742 42.0363 26.5495 42.218 26.5495 42.4075C26.5495 42.597 26.4742 42.7787 26.3402 42.9127C26.2062 43.0467 26.0245 43.122 25.835 43.122Z" fill="black"/>
<path d="M17.763 43.122H16.093C15.9035 43.122 15.7217 43.0467 15.5878 42.9127C15.4538 42.7787 15.3785 42.597 15.3785 42.4075C15.3785 42.218 15.4538 42.0363 15.5878 41.9023C15.7217 41.7683 15.9035 41.693 16.093 41.693H17.763C17.9525 41.693 18.1342 41.7683 18.2682 41.9023C18.4022 42.0363 18.4775 42.218 18.4775 42.4075C18.4775 42.597 18.4022 42.7787 18.2682 42.9127C18.1342 43.0467 17.9525 43.122 17.763 43.122Z" fill="black"/>
<path d="M9.68998 43.122H8.01998C7.83048 43.122 7.64875 43.0467 7.51475 42.9127C7.38076 42.7787 7.30548 42.597 7.30548 42.4075C7.30548 42.218 7.38076 42.0363 7.51475 41.9023C7.64875 41.7683 7.83048 41.693 8.01998 41.693H9.68998C9.87948 41.693 10.0612 41.7683 10.1952 41.9023C10.3292 42.0363 10.4045 42.218 10.4045 42.4075C10.4045 42.597 10.3292 42.7787 10.1952 42.9127C10.0612 43.0467 9.87948 43.122 9.68998 43.122Z" fill="black"/>
</g>
<defs>
<clipPath id="clip0">
<rect width="50" height="50.001" fill="white"/>
</clipPath>
</defs>
</svg>
