<svg width="50" height="50" viewBox="0 0 50 50" fill="none" xmlns="http://www.w3.org/2000/svg">
<g clip-path="url(#clip0)">
<path d="M29.05 25.727H20.96C20.7775 25.7273 20.6019 25.6577 20.4691 25.5326C20.3363 25.4074 20.2565 25.2362 20.246 25.054L19.882 18.743C19.8766 18.6493 19.8897 18.5556 19.9205 18.467C19.9514 18.3784 19.9994 18.2968 20.0618 18.2268C20.1242 18.1567 20.1998 18.0997 20.2842 18.0589C20.3687 18.0181 20.4604 17.9943 20.554 17.989C20.7423 17.9807 20.9264 18.0461 21.0672 18.1714C21.208 18.2967 21.2944 18.472 21.308 18.66L21.634 24.298H28.37L28.696 18.66C28.707 18.4705 28.7928 18.2931 28.9346 18.1669C29.0764 18.0407 29.2625 17.976 29.452 17.987C29.6415 17.998 29.8189 18.0838 29.9451 18.2256C30.0713 18.3674 30.136 18.5535 30.125 18.743L29.761 25.054C29.7506 25.2356 29.6712 25.4064 29.539 25.5315C29.4069 25.6566 29.232 25.7265 29.05 25.727Z" fill="black"/>
<path d="M48.53 30.723H1.47C1.0856 30.7284 0.714805 30.5808 0.439147 30.3129C0.163489 30.0449 0.00553064 29.6784 0 29.294V25.723C0.00553064 25.3386 0.163489 24.9722 0.439147 24.7042C0.714805 24.4362 1.0856 24.2887 1.47 24.294H48.53C48.9144 24.2887 49.2852 24.4362 49.5609 24.7042C49.8365 24.9722 49.9945 25.3386 50 25.723V29.294C49.9945 29.6784 49.8365 30.0449 49.5609 30.3129C49.2852 30.5808 48.9144 30.7284 48.53 30.723ZM1.47 25.723V29.294H48.53V25.723H1.47Z" fill="black"/>
<path d="M46.407 25.729H3.593C3.49765 25.7306 3.40293 25.7134 3.31424 25.6784C3.22555 25.6434 3.14463 25.5912 3.07609 25.5249C3.00756 25.4586 2.95276 25.3794 2.91482 25.292C2.87689 25.2045 2.85656 25.1104 2.855 25.015V22.872C2.90903 18.0621 4.56759 13.4079 7.56758 9.6478C10.5676 5.88767 14.7372 3.23692 19.415 2.11603C19.6023 2.06675 19.8015 2.09287 19.9697 2.18878C20.138 2.28469 20.262 2.44275 20.315 2.62903C20.3383 2.72099 20.3431 2.81668 20.329 2.9105C20.3149 3.00432 20.2822 3.09439 20.2328 3.17541C20.1835 3.25643 20.1184 3.32679 20.0415 3.38236C19.9646 3.43793 19.8774 3.4776 19.785 3.49903C15.4191 4.5455 11.5277 7.01975 8.7279 10.5293C5.92811 14.0389 4.38031 18.3828 4.33 22.872V24.301H45.67V22.872C45.6734 22.1672 45.6334 21.4629 45.55 20.763C45.5398 20.6685 45.5484 20.5728 45.5753 20.4816C45.6022 20.3904 45.647 20.3054 45.707 20.2316C45.7669 20.1577 45.841 20.0965 45.9247 20.0515C46.0085 20.0064 46.1003 19.9784 46.195 19.969C46.3864 19.9442 46.5799 19.996 46.7335 20.113C46.887 20.23 46.9882 20.4029 47.015 20.594C47.1053 21.3496 47.1491 22.1101 47.146 22.871V25.007C47.1431 25.2003 47.0639 25.3846 46.9256 25.5197C46.7874 25.6547 46.6013 25.7296 46.408 25.728L46.407 25.729Z" fill="black"/>
<path d="M40.94 9.81401C40.8381 9.81408 40.7374 9.79235 40.6446 9.75026C40.5518 9.70817 40.4691 9.64671 40.402 9.57001C39.9604 9.06853 39.4931 8.59023 39.002 8.13701C38.9333 8.07312 38.8779 7.99633 38.8389 7.91102C38.7999 7.82572 38.7781 7.73356 38.7747 7.63982C38.7713 7.54608 38.7864 7.45259 38.8191 7.36469C38.8519 7.27678 38.9016 7.19619 38.9655 7.12751C39.0294 7.05883 39.1062 7.0034 39.1915 6.9644C39.2768 6.9254 39.369 6.90358 39.4627 6.90019C39.5564 6.8968 39.6499 6.9119 39.7378 6.94465C39.8257 6.97739 39.9063 7.02712 39.975 7.09101C40.5012 7.57748 41.0018 8.09083 41.475 8.62901C41.5655 8.73213 41.6244 8.85915 41.6446 8.99487C41.6648 9.13058 41.6455 9.26925 41.5889 9.39427C41.5324 9.51928 41.441 9.62536 41.3258 9.6998C41.2105 9.77424 41.0762 9.81389 40.939 9.81401H40.94Z" fill="black"/>
<path d="M35.091 5.33499H35.084C34.9656 5.33487 34.8491 5.30532 34.745 5.24899C33.3378 4.48946 31.8444 3.90191 30.297 3.49899C30.1136 3.45165 29.9565 3.33339 29.8603 3.17024C29.7641 3.00708 29.7366 2.81239 29.784 2.62899C29.8313 2.44559 29.9496 2.28852 30.1127 2.19231C30.2759 2.0961 30.4706 2.06865 30.654 2.11599C32.3038 2.54658 33.8961 3.17303 35.397 3.98199C35.5425 4.05223 35.6599 4.16975 35.73 4.31534C35.8 4.46093 35.8186 4.62598 35.7828 4.78352C35.7469 4.94106 35.6587 5.08178 35.5325 5.18267C35.4063 5.28357 35.2496 5.33868 35.088 5.33899L35.091 5.33499Z" fill="black"/>
<path d="M44.982 15.943C44.8398 15.9431 44.7008 15.9006 44.5828 15.8212C44.4649 15.7417 44.3734 15.6288 44.32 15.497C44.0534 14.838 43.753 14.1931 43.42 13.565C43.3758 13.4823 43.3483 13.3917 43.3392 13.2983C43.33 13.205 43.3393 13.1107 43.3666 13.021C43.3938 12.9312 43.4385 12.8477 43.498 12.7752C43.5575 12.7028 43.6308 12.6427 43.7135 12.5985C43.7962 12.5543 43.8869 12.5269 43.9802 12.5177C44.0735 12.5085 44.1678 12.5178 44.2575 12.5451C44.3473 12.5724 44.4308 12.617 44.5033 12.6765C44.5757 12.7361 44.6358 12.8093 44.68 12.892C45.0359 13.5639 45.3567 14.2538 45.641 14.959C45.6853 15.0674 45.7022 15.1851 45.6903 15.3016C45.6784 15.4181 45.638 15.5299 45.5727 15.6272C45.5074 15.7244 45.4192 15.804 45.3158 15.8591C45.2124 15.9142 45.0971 15.943 44.98 15.943H44.982Z" fill="black"/>
<path d="M29.81 10.991H29.769C29.6753 10.9858 29.5835 10.9621 29.4989 10.9214C29.4144 10.8806 29.3386 10.8236 29.2761 10.7536C29.2136 10.6835 29.1655 10.6019 29.1346 10.5132C29.1037 10.4246 29.0906 10.3307 29.096 10.237L29.553 2.06801C29.5568 1.98606 29.5438 1.9042 29.5147 1.82749C29.4856 1.75078 29.4412 1.68085 29.384 1.62201C29.3254 1.5601 29.2546 1.51093 29.1762 1.47755C29.0977 1.44417 29.0133 1.42731 28.928 1.42801H21.071C20.9861 1.42758 20.902 1.44458 20.8239 1.47795C20.7458 1.51132 20.6754 1.56035 20.617 1.62201C20.5595 1.68186 20.5149 1.75283 20.4858 1.83055C20.4568 1.90828 20.4439 1.99113 20.448 2.07401L20.905 10.236C20.9102 10.3298 20.897 10.4238 20.8659 10.5125C20.8349 10.6012 20.7866 10.6829 20.724 10.753C20.6614 10.823 20.5856 10.8801 20.5009 10.9208C20.4162 10.9616 20.3243 10.9853 20.2305 10.9905C20.1367 10.9958 20.0427 10.9825 19.954 10.9514C19.8653 10.9204 19.7836 10.8722 19.7136 10.8095C19.6435 10.7469 19.5865 10.6711 19.5457 10.5864C19.5049 10.5017 19.4813 10.4098 19.476 10.316L19.018 2.14701C19.0049 1.86949 19.0483 1.59221 19.1456 1.33198C19.2429 1.07176 19.3921 0.834026 19.5841 0.633229C19.7761 0.432431 20.0069 0.272757 20.2625 0.163904C20.5181 0.0550502 20.7932 -0.000710957 21.071 6.84284e-06H28.928C29.2053 -0.000420401 29.4797 0.0554265 29.7348 0.164166C29.9898 0.272906 30.2201 0.432276 30.4118 0.632626C30.6034 0.832977 30.7524 1.07014 30.8498 1.32976C30.9471 1.58937 30.9907 1.86604 30.978 2.14301L30.52 10.318C30.5096 10.4995 30.4303 10.6702 30.2984 10.7952C30.1664 10.9203 29.9918 10.9903 29.81 10.991Z" fill="black"/>
<path d="M25 21.235C23.6218 21.2352 22.2745 20.8267 21.1284 20.0611C19.9824 19.2955 19.0891 18.2073 18.5616 16.934C18.0341 15.6607 17.896 14.2596 18.1648 12.9079C18.4337 11.5561 19.0973 10.3144 20.0719 9.33989C21.0464 8.36534 22.2881 7.70168 23.6399 7.43285C24.9916 7.16402 26.3927 7.3021 27.666 7.82961C28.9393 8.35713 30.0275 9.25039 30.7931 10.3964C31.5587 11.5425 31.9672 12.8898 31.967 14.268C31.9667 16.1157 31.2326 17.8876 29.9261 19.1941C28.6196 20.5006 26.8477 21.2347 25 21.235ZM25 8.72901C23.9045 8.72901 22.8336 9.05387 21.9227 9.6625C21.0118 10.2711 20.3019 11.1362 19.8826 12.1483C19.4634 13.1605 19.3537 14.2742 19.5674 15.3486C19.7812 16.4231 20.3087 17.41 21.0833 18.1847C21.858 18.9593 22.8449 19.4869 23.9194 19.7006C24.9939 19.9143 26.1076 19.8046 27.1197 19.3854C28.1318 18.9661 28.9969 18.2562 29.6055 17.3453C30.2142 16.4344 30.539 15.3635 30.539 14.268C30.539 12.799 29.9554 11.3901 28.9167 10.3514C27.8779 9.31259 26.469 8.72901 25 8.72901Z" fill="black"/>
<path d="M37.051 46.12C36.7797 46.1208 36.5153 46.0342 36.297 45.873L33.756 44.059C33.6018 43.949 33.4976 43.7821 33.4664 43.5953C33.4351 43.4084 33.4794 43.2168 33.5895 43.0625C33.6996 42.9083 33.8664 42.8041 34.0533 42.7729C34.2402 42.7417 34.4318 42.786 34.586 42.896L37.037 44.646L40.056 41.627L38.381 39.281L38.375 39.274C38.3079 39.2095 38.2543 39.1321 38.2175 39.0466C38.1806 38.9611 38.1612 38.8691 38.1604 38.7759C38.1596 38.6828 38.1773 38.5904 38.2126 38.5043C38.2479 38.4181 38.3001 38.3398 38.366 38.274L38.382 38.258C38.4553 38.1847 38.5438 38.1282 38.6411 38.0925C38.7385 38.0568 38.8425 38.0428 38.9459 38.0513C39.0492 38.0599 39.1495 38.0909 39.2396 38.1421C39.3298 38.1934 39.4077 38.2636 39.468 38.348L41.289 40.899C41.4657 41.1454 41.5492 41.4464 41.5246 41.7486C41.5001 42.0508 41.3691 42.3344 41.155 42.549L37.955 45.749C37.7139 45.9877 37.3883 46.1214 37.049 46.121L37.051 46.12ZM40.132 41.732V41.737V41.732Z" fill="black"/>
<path d="M12.953 46.121C12.6121 46.1219 12.2848 45.9874 12.043 45.747L8.843 42.547C8.62834 42.3301 8.49781 42.044 8.47472 41.7397C8.45164 41.4354 8.53752 41.1328 8.717 40.886L10.531 38.346C10.5855 38.2697 10.6545 38.2048 10.7341 38.1551C10.8137 38.1054 10.9022 38.0719 10.9948 38.0564C11.0873 38.0409 11.182 38.0439 11.2734 38.065C11.3648 38.0861 11.4511 38.125 11.5275 38.1795C11.6039 38.234 11.6687 38.303 11.7184 38.3826C11.7681 38.4622 11.8017 38.5508 11.8171 38.6433C11.8326 38.7358 11.8297 38.8305 11.8086 38.9219C11.7874 39.0133 11.7485 39.0997 11.694 39.176L9.944 41.627L12.963 44.646L15.263 43.003C15.3373 42.9257 15.4271 42.865 15.5265 42.8249C15.6259 42.7847 15.7327 42.7662 15.8399 42.7703C15.947 42.7745 16.0521 42.8013 16.1481 42.849C16.2441 42.8967 16.329 42.9642 16.397 43.047C16.4546 43.1232 16.4963 43.2101 16.5197 43.3026C16.5431 43.3951 16.5477 43.4914 16.5333 43.5858C16.5188 43.6801 16.4856 43.7706 16.4356 43.8519C16.3855 43.9332 16.3197 44.0036 16.242 44.059L13.693 45.881C13.4785 46.0384 13.219 46.1226 12.953 46.121Z" fill="black"/>
<path d="M10.845 39.492C10.749 39.4922 10.6539 39.4729 10.5655 39.4353C10.4772 39.3976 10.3974 39.3424 10.331 39.273L10.323 39.266C10.2876 39.2312 10.2561 39.1926 10.229 39.151C9.19144 37.5635 8.43505 35.8092 7.99299 33.965L5.37599 33.536C5.07731 33.4854 4.80609 33.3309 4.61015 33.0998C4.41422 32.8688 4.30615 32.576 4.30499 32.273V30.008C4.30499 29.8185 4.38027 29.6368 4.51427 29.5028C4.64826 29.3688 4.82999 29.2935 5.01949 29.2935C5.20899 29.2935 5.39073 29.3688 5.52472 29.5028C5.65871 29.6368 5.73399 29.8185 5.73399 30.008V32.142L8.70299 32.631C8.84543 32.6543 8.97747 32.7201 9.08173 32.8199C9.18598 32.9197 9.25755 33.0487 9.28699 33.19C9.66717 35.0142 10.3812 36.7523 11.393 38.317C11.4989 38.4463 11.5575 38.6079 11.559 38.775C11.5594 38.8693 11.5411 38.9627 11.5052 39.0499C11.4693 39.137 11.4165 39.2162 11.3499 39.2829C11.2832 39.3496 11.204 39.4024 11.1168 39.4382C11.0297 39.4741 10.9363 39.4924 10.842 39.492H10.845Z" fill="black"/>
<path d="M39.171 39.475C39.0428 39.4749 38.9171 39.4403 38.8069 39.3748C38.6967 39.3093 38.6062 39.2154 38.5449 39.1029C38.4835 38.9904 38.4535 38.8635 38.4581 38.7354C38.4627 38.6073 38.5017 38.4828 38.571 38.375C39.6002 36.7969 40.3257 35.0405 40.71 33.196C40.7395 33.0547 40.811 32.9257 40.9153 32.8259C41.0195 32.7261 41.1516 32.6603 41.294 32.637L44.263 32.146V30.008C44.263 29.8185 44.3383 29.6368 44.4723 29.5028C44.6063 29.3688 44.788 29.2935 44.9775 29.2935C45.167 29.2935 45.3487 29.3688 45.4827 29.5028C45.6167 29.6368 45.692 29.8185 45.692 30.008V32.272C45.6907 32.5735 45.5836 32.8649 45.3893 33.0954C45.195 33.3258 44.9259 33.4807 44.629 33.533L42.003 33.962C41.562 35.8059 40.807 37.5602 39.771 39.148C39.7064 39.2485 39.6176 39.3312 39.5128 39.3885C39.408 39.4458 39.2905 39.4759 39.171 39.476V39.475Z" fill="black"/>
<path d="M27.264 49.996H22.736C22.4341 49.9946 22.1424 49.887 21.9118 49.6921C21.6813 49.4972 21.5266 49.2274 21.475 48.93L21.046 46.305C19.2022 45.8637 17.448 45.1088 15.86 44.073C15.7812 44.0218 15.7133 43.9556 15.6601 43.8781C15.6069 43.8006 15.5695 43.7134 15.55 43.6215C15.5305 43.5296 15.5293 43.4347 15.5464 43.3423C15.5636 43.2499 15.5988 43.1618 15.65 43.083C15.7012 43.0042 15.7675 42.9363 15.8449 42.8831C15.9224 42.8299 16.0096 42.7925 16.1015 42.773C16.1934 42.7535 16.2883 42.7523 16.3807 42.7694C16.4731 42.7866 16.5612 42.8218 16.64 42.873C18.2178 43.9029 19.9743 44.6284 21.819 45.012C21.9603 45.0415 22.0893 45.113 22.1891 45.2173C22.2889 45.3215 22.3548 45.4536 22.378 45.596L22.864 48.566H27.138L27.627 45.596C27.6502 45.4536 27.7161 45.3215 27.8159 45.2173C27.9157 45.113 28.0447 45.0415 28.186 45.012C30.0246 44.6292 31.7758 43.9072 33.35 42.883C33.4881 42.7872 33.6552 42.7423 33.8226 42.7562C33.9901 42.7701 34.1476 42.8418 34.268 42.959C34.335 43.0237 34.3885 43.101 34.4253 43.1866C34.462 43.2722 34.4814 43.3642 34.4821 43.4573C34.4829 43.5505 34.465 43.6428 34.4296 43.7289C34.3942 43.8151 34.342 43.8933 34.276 43.959L34.26 43.975C34.225 44.0102 34.1865 44.0417 34.145 44.069C32.5571 45.1049 30.8029 45.8599 28.959 46.301L28.53 48.918C28.4808 49.2185 28.3265 49.4917 28.0947 49.6891C27.8628 49.8865 27.5685 49.9953 27.264 49.996Z" fill="black"/>
<path d="M25.009 41.838C21.8723 41.8332 18.8653 40.5858 16.6463 38.3687C14.4274 36.1517 13.1774 33.1457 13.17 30.009C13.17 29.8195 13.2453 29.6378 13.3793 29.5038C13.5133 29.3698 13.695 29.2945 13.8845 29.2945C14.074 29.2945 14.2557 29.3698 14.3897 29.5038C14.5237 29.6378 14.599 29.8195 14.599 30.009C14.5855 31.384 14.8447 32.7481 15.3616 34.0224C15.8785 35.2967 16.6428 36.4559 17.6104 37.433C18.5779 38.4101 19.7296 39.1858 20.9987 39.7151C22.2679 40.2445 23.6294 40.517 25.0045 40.517C26.3796 40.517 27.7411 40.2445 29.0103 39.7151C30.2794 39.1858 31.431 38.4101 32.3986 37.433C33.3662 36.4559 34.1305 35.2967 34.6474 34.0224C35.1643 32.7481 35.4235 31.384 35.41 30.009C35.41 29.9152 35.4285 29.8224 35.4643 29.7358C35.5002 29.6491 35.5528 29.5704 35.6191 29.5041C35.6854 29.4378 35.7641 29.3852 35.8508 29.3493C35.9374 29.3135 36.0302 29.295 36.124 29.295C36.2178 29.295 36.3106 29.3135 36.3972 29.3493C36.4839 29.3852 36.5626 29.4378 36.6289 29.5041C36.6952 29.5704 36.7478 29.6491 36.7836 29.7358C36.8195 29.8224 36.838 29.9152 36.838 30.009C36.8306 33.144 35.582 36.1484 33.3652 38.3652C31.1484 40.582 28.144 41.8306 25.009 41.838Z" fill="black"/>
</g>
<defs>
<clipPath id="clip0">
<rect width="50" height="50" fill="white"/>
</clipPath>
</defs>
</svg>
