<svg width="55" height="55" viewBox="0 0 55 55" fill="none" xmlns="http://www.w3.org/2000/svg">
<g clip-path="url(#clip0)">
<path d="M34.1044 3.82086C28.7913 3.82086 23.7385 5.81319 19.859 9.43243C16.0989 9.61611 12.4833 10.7998 9.34468 12.8854C8.9741 13.1316 8.87323 13.6316 9.11954 14.0022C9.36573 14.3729 9.86586 14.4735 10.2363 14.2273C22.7258 5.69139 40.3725 15.1501 40.1732 30.299C40.1734 40.9303 31.5239 49.5796 20.8924 49.5796C3.77983 49.6865 -4.91315 28.3355 7.42979 16.4961C7.74796 16.1855 7.75419 15.6755 7.44354 15.357C7.13279 15.0385 6.62278 15.0322 6.3043 15.3429C2.23897 19.3089 0.000115198 24.6203 0.000115198 30.2986C-0.0582111 48.4857 22.0456 57.9483 35.1238 45.5789C45.9607 45.2648 55.2084 35.5623 54.9965 24.713C54.9966 13.193 45.6244 3.82086 34.1044 3.82086ZM36.8177 43.8052C37.9455 42.4774 38.911 41.0078 39.6823 39.4264C41.89 38.5865 43.9145 37.2352 45.5452 35.5077C45.8506 35.1842 45.8359 34.6743 45.5124 34.3689C45.1888 34.0635 44.679 34.078 44.3734 34.4017C43.2828 35.557 41.996 36.5244 40.5922 37.2551C44.3482 27.3244 39.0214 15.3701 29.6179 11.3183C41.7336 7.24654 52.6608 20.3504 46.4723 31.5308C46.2571 31.92 46.3979 32.4102 46.7871 32.6257C47.169 32.8392 47.6654 32.704 47.882 32.3111C55.1488 18.99 41.2121 4.09574 27.4418 10.4591C25.8116 9.91956 24.0933 9.57605 22.3145 9.45585C34.7333 -0.335453 53.5164 8.86894 53.3852 24.7134C53.3853 34.4427 46.2487 42.4902 36.8177 43.8052Z" fill="black"/>
<path d="M20.8923 46.0349C29.5693 46.0349 36.6286 38.9756 36.6286 30.2986C35.8375 9.45097 5.944 9.45666 5.15601 30.2988C5.15601 38.9756 12.2153 46.0349 20.8923 46.0349ZM20.8923 16.1735C28.681 16.1735 35.0174 22.5101 35.0174 30.2986C34.3072 49.0117 7.47456 49.0066 6.76723 30.2984C6.76723 22.51 13.1037 16.1735 20.8923 16.1735Z" fill="black"/>
<path d="M17.1774 35.8576C18.2073 36.5313 18.9108 36.7322 19.8193 36.7833V37.6546C19.8193 38.0995 20.18 38.4602 20.6249 38.4602C21.0698 38.4602 21.4305 38.0995 21.4305 37.6546V36.7192C23.2379 36.3646 24.2936 34.8741 24.5277 33.482C24.8918 31.2854 23.4942 29.8231 21.4305 29.2576V25.4481C22.0301 25.5916 22.3874 25.8947 22.4192 25.9225C23.2263 26.6105 24.2639 25.4755 23.5063 24.7332C23.4605 24.691 22.6909 23.9975 21.4306 23.8083V23.0302C21.4306 22.5853 21.0699 22.2246 20.625 22.2246C20.1801 22.2246 19.8194 22.5853 19.8194 23.0302V23.8701C17.3307 24.26 16.163 27.774 18.1528 29.3844C18.5749 29.7153 19.1 30.0185 19.8194 30.3387V35.1693C19.197 35.1234 18.7659 34.9714 18.0596 34.5092C17.1504 33.9536 16.3043 35.2475 17.1774 35.8576ZM19.1469 28.1165C18.3999 27.463 18.7706 25.9333 19.8191 25.5416V28.5462C19.5662 28.4089 19.3374 28.2658 19.1469 28.1165ZM21.6052 31.0364C23.8717 31.8894 22.9863 34.5324 21.4304 35.0457V30.9738C21.4885 30.9946 21.5454 31.0152 21.6052 31.0364Z" fill="black"/>
</g>
<defs>
<clipPath id="clip0">
<rect width="55" height="55" fill="white"/>
</clipPath>
</defs>
</svg>
