<svg width="18" height="17" viewBox="0 0 18 17" fill="none" xmlns="http://www.w3.org/2000/svg">
<g clip-path="url(#clip0)">
<path d="M16.214 13.952C15.9458 14.4549 15.5686 14.8916 15.1099 15.23C14.6512 15.5684 14.1227 15.8001 13.563 15.908C12.857 16.062 11.935 16.185 8.83199 14.865C4.86199 13.178 2.305 9.04097 2.106 8.77197C1.18698 7.55899 0.63204 6.10956 0.505997 4.59297C0.487103 3.96553 0.600275 3.34112 0.838181 2.76022C1.07609 2.17933 1.43341 1.65491 1.88699 1.22097C2.26361 0.8791 2.75981 0.69945 3.268 0.720971C3.435 0.720971 3.58499 0.72997 3.72099 0.73697C4.12099 0.75397 4.321 0.778968 4.579 1.42097C4.905 2.22597 5.699 4.21497 5.793 4.42097C5.85991 4.53303 5.89989 4.65911 5.90978 4.78926C5.91967 4.91941 5.89921 5.05008 5.85 5.17097C5.73959 5.40515 5.59201 5.61993 5.41299 5.80697C5.213 6.04197 5.025 6.22297 4.825 6.47597C4.69795 6.57556 4.61168 6.71814 4.5824 6.87689C4.55312 7.03563 4.58285 7.19961 4.666 7.33797C5.25705 8.37084 5.99547 9.31207 6.85799 10.132C7.77698 10.9943 8.85226 11.6731 10.026 12.132C10.1812 12.2075 10.356 12.2332 10.5264 12.2056C10.6968 12.1781 10.8545 12.0986 10.978 11.978C11.3545 11.519 11.7063 11.0403 12.032 10.544C12.1256 10.3807 12.2776 10.2589 12.4574 10.2032C12.6373 10.1476 12.8315 10.1621 13.001 10.244C13.366 10.374 15.296 11.352 15.693 11.555C16.09 11.758 16.351 11.855 16.448 12.028C16.5524 12.6786 16.4713 13.3454 16.214 13.952Z" fill="white" stroke="#131313"/>
<path d="M9.40599 0.67606C10.923 0.677912 12.3773 1.28136 13.45 2.35404C14.5227 3.42672 15.1262 4.88106 15.128 6.39806C15.1255 6.44379 15.1324 6.48956 15.1481 6.53255C15.1639 6.57555 15.1883 6.61487 15.2198 6.64813C15.2513 6.68138 15.2892 6.70787 15.3313 6.72597C15.3734 6.74407 15.4187 6.75341 15.4645 6.75341C15.5103 6.75341 15.5556 6.74407 15.5977 6.72597C15.6398 6.70787 15.6777 6.68138 15.7092 6.64813C15.7407 6.61487 15.7651 6.57555 15.7808 6.53255C15.7966 6.48956 15.8035 6.44379 15.801 6.39806C15.801 4.70067 15.1267 3.07281 13.9265 1.87258C12.7262 0.672345 11.0984 -0.00194162 9.40099 -0.00194162C9.35525 -0.00443562 9.30949 0.00242352 9.26649 0.0182076C9.2235 0.0339917 9.18418 0.0583709 9.15092 0.0898629C9.11767 0.121355 9.09118 0.159295 9.07307 0.201366C9.05497 0.243438 9.04564 0.28876 9.04564 0.33456C9.04564 0.380361 9.05497 0.425683 9.07307 0.467754C9.09118 0.509826 9.11767 0.547766 9.15092 0.579258C9.18418 0.61075 9.2235 0.635129 9.26649 0.650913C9.30949 0.666697 9.35525 0.673557 9.40099 0.671063L9.40599 0.67606Z" fill="black"/>
<path d="M9.435 2.57713C10.4157 2.57898 11.3558 2.9694 12.0493 3.66288C12.7427 4.35637 13.1332 5.2964 13.135 6.27713C13.1325 6.32287 13.1394 6.36863 13.1552 6.41163C13.1709 6.45462 13.1953 6.49395 13.2268 6.5272C13.2583 6.56046 13.2962 6.58694 13.3383 6.60505C13.3804 6.62315 13.4257 6.63248 13.4715 6.63248C13.5173 6.63248 13.5626 6.62315 13.6047 6.60505C13.6468 6.58694 13.6847 6.56046 13.7162 6.5272C13.7477 6.49395 13.7721 6.45462 13.7878 6.41163C13.8036 6.36863 13.8105 6.32287 13.808 6.27713C13.8067 5.11695 13.3452 4.00466 12.5248 3.18429C11.7045 2.36392 10.5922 1.90246 9.43201 1.90113C9.38627 1.89864 9.34051 1.90549 9.29752 1.92128C9.25452 1.93706 9.2152 1.96145 9.18195 1.99294C9.14869 2.02443 9.1222 2.06237 9.1041 2.10444C9.08599 2.14651 9.07666 2.19183 9.07666 2.23763C9.07666 2.28343 9.08599 2.32875 9.1041 2.37082C9.1222 2.4129 9.14869 2.45083 9.18195 2.48233C9.2152 2.51382 9.25452 2.53821 9.29752 2.55399C9.34051 2.56977 9.38627 2.57663 9.43201 2.57413L9.435 2.57713Z" fill="black"/>
<path d="M9.42799 4.78701C9.87419 4.78754 10.302 4.96504 10.6175 5.28054C10.933 5.59605 11.1105 6.02382 11.111 6.47001C11.1157 6.55609 11.1532 6.63709 11.2158 6.69636C11.2784 6.75563 11.3613 6.78866 11.4475 6.78866C11.5337 6.78866 11.6166 6.75563 11.6792 6.69636C11.7418 6.63709 11.7793 6.55609 11.784 6.47001C11.7832 5.84541 11.5347 5.24662 11.0931 4.80496C10.6514 4.3633 10.0526 4.11482 9.42799 4.11403C9.38226 4.11153 9.3365 4.11838 9.2935 4.13417C9.25051 4.14995 9.21119 4.17433 9.17793 4.20582C9.14468 4.23731 9.11818 4.27526 9.10008 4.31733C9.08198 4.35941 9.07265 4.40473 9.07265 4.45053C9.07265 4.49633 9.08198 4.54163 9.10008 4.58371C9.11818 4.62578 9.14468 4.66373 9.17793 4.69522C9.21119 4.72671 9.25051 4.75109 9.2935 4.76687C9.3365 4.78266 9.38226 4.78951 9.42799 4.78701Z" fill="black"/>
</g>
<defs>
<clipPath id="clip0">
<rect width="17.031" height="16.469" fill="white"/>
</clipPath>
</defs>
</svg>
