<svg width="14" height="13" viewBox="0 0 14 13" fill="none" xmlns="http://www.w3.org/2000/svg">
<g clip-path="url(#clip0)">
<path d="M11.226 12.3813H2.41541C2.21356 12.381 2.01292 12.3416 1.82654 12.2641C1.64016 12.1866 1.47103 12.073 1.32849 11.9301C1.18595 11.7872 1.07346 11.6167 0.996461 11.4301C0.919462 11.2435 0.879988 11.044 0.88025 10.8422V2.03165C0.881309 1.62523 1.04367 1.23467 1.33142 0.947662C1.61918 0.660659 2.00899 0.500395 2.41541 0.500397H11.226C11.6321 0.500661 12.0216 0.660659 12.309 0.947662C12.5963 1.23467 12.7584 1.6255 12.7592 2.03165V10.8422C12.7597 11.2495 12.5984 11.6396 12.3109 11.9281C12.0235 12.2167 11.6332 12.3802 11.226 12.3813V12.3813ZM6.9447 3.91446C6.25722 3.91604 5.5988 4.19005 5.11267 4.67618C4.62655 5.1623 4.35254 5.82072 4.35095 6.50821C4.35095 7.19673 4.62442 7.85672 5.11072 8.34415C5.59702 8.83157 6.25618 9.10623 6.9447 9.10782C7.63427 9.10782 8.29598 8.83369 8.78357 8.3461C9.27117 7.85851 9.54529 7.19777 9.54529 6.50821C9.5437 5.81969 9.26904 5.16052 8.78162 4.67422C8.2942 4.18793 7.63323 3.91446 6.9447 3.91446Z" stroke="black" stroke-linecap="round" stroke-linejoin="round"/>
</g>
<defs>
<clipPath id="clip0">
<rect width="12.879" height="12.881" fill="white" transform="translate(0.380005)"/>
</clipPath>
</defs>
</svg>
