<svg width="14" height="18" viewBox="0 0 14 18" fill="none" xmlns="http://www.w3.org/2000/svg">
<g clip-path="url(#clip0)">
<path d="M6.50203 16.5L1.69613 10.0191C0.838188 8.85854 0.420151 7.43118 0.516926 5.99122C0.630573 4.54451 1.24821 3.18331 2.26204 2.14503C2.82372 1.61869 3.48176 1.20597 4.20003 0.929211C4.93062 0.646187 5.70755 0.501454 6.49105 0.502942H6.52108C7.30402 0.501412 8.08041 0.646478 8.81014 0.930188C9.52835 1.20663 10.1864 1.61902 10.7481 2.14503C11.7618 3.18544 12.3779 4.54878 12.4891 5.99708C12.5844 7.43935 12.1644 8.86832 11.304 10.0298L6.50203 16.5ZM6.55697 3.96486C5.98366 3.95301 5.42903 4.16855 5.01375 4.56398C4.59847 4.9594 4.35616 5.50299 4.33992 6.07618C4.3559 6.64947 4.59817 7.19291 5.01351 7.58839C5.42885 7.98387 5.98359 8.19913 6.55697 8.18702C7.1304 8.19965 7.68561 7.9845 8.10091 7.58888C8.51621 7.19326 8.75783 6.64955 8.77303 6.07618C8.75783 5.50352 8.5168 4.95997 8.10238 4.56447C7.68795 4.16896 7.13386 3.9533 6.56112 3.96486H6.55697Z" fill="white" stroke="#131313" stroke-linecap="round"/>
</g>
<defs>
<clipPath id="clip0">
<rect width="13.004" height="17.362" fill="white"/>
</clipPath>
</defs>
</svg>
