<svg width="101" height="28" viewBox="0 0 101 28" fill="none" xmlns="http://www.w3.org/2000/svg">
<path d="M0.772 27V1.296H7.72V21.384H17.62V27H0.772ZM45.07 14.112C45.07 16.776 44.638 19.104 43.774 21.096C42.934 23.064 41.59 24.6 39.742 25.704C37.918 26.808 35.53 27.36 32.578 27.36C29.698 27.36 27.334 26.808 25.486 25.704C23.638 24.6 22.27 23.052 21.382 21.06C20.518 19.068 20.086 16.74 20.086 14.076C20.086 11.412 20.53 9.096 21.418 7.128C22.306 5.136 23.674 3.6 25.522 2.52C27.37 1.44 29.734 0.899999 32.614 0.899999C35.542 0.899999 37.918 1.452 39.742 2.556C41.59 3.636 42.934 5.172 43.774 7.164C44.638 9.132 45.07 11.448 45.07 14.112ZM27.394 14.112C27.394 16.44 27.79 18.264 28.582 19.584C29.398 20.904 30.73 21.564 32.578 21.564C34.498 21.564 35.842 20.904 36.61 19.584C37.378 18.264 37.762 16.44 37.762 14.112C37.762 11.784 37.378 9.948 36.61 8.604C35.842 7.26 34.51 6.588 32.614 6.588C30.718 6.588 29.374 7.26 28.582 8.604C27.79 9.948 27.394 11.784 27.394 14.112ZM100.406 14.112C100.406 16.776 99.9739 19.104 99.1099 21.096C98.2699 23.064 96.9259 24.6 95.0779 25.704C93.2539 26.808 90.8659 27.36 87.9139 27.36C85.0339 27.36 82.6699 26.808 80.8219 25.704C78.9739 24.6 77.6059 23.052 76.7179 21.06C75.8539 19.068 75.4219 16.74 75.4219 14.076C75.4219 11.412 75.8659 9.096 76.7539 7.128C77.6419 5.136 79.0099 3.6 80.8579 2.52C82.7059 1.44 85.0699 0.899999 87.9499 0.899999C90.8779 0.899999 93.2539 1.452 95.0779 2.556C96.9259 3.636 98.2699 5.172 99.1099 7.164C99.9739 9.132 100.406 11.448 100.406 14.112ZM82.7299 14.112C82.7299 16.44 83.1259 18.264 83.9179 19.584C84.7339 20.904 86.0659 21.564 87.9139 21.564C89.8339 21.564 91.1779 20.904 91.9459 19.584C92.7139 18.264 93.0979 16.44 93.0979 14.112C93.0979 11.784 92.7139 9.948 91.9459 8.604C91.1779 7.26 89.8459 6.588 87.9499 6.588C86.0539 6.588 84.7099 7.26 83.9179 8.604C83.1259 9.948 82.7299 11.784 82.7299 14.112Z" fill="black"/>
<path d="M60.0415 11.952H71.1295V25.812C69.8095 26.268 68.2855 26.64 66.5575 26.928C64.8535 27.216 63.0655 27.36 61.1935 27.36C58.7215 27.36 56.5495 26.88 54.6775 25.92C52.8295 24.96 51.3775 23.496 50.3215 21.528C49.2895 19.56 48.7735 17.076 48.7735 14.076C48.7735 11.388 49.2895 9.06 50.3215 7.092C51.3535 5.124 52.8655 3.612 54.8575 2.556C56.8735 1.476 59.3455 0.935999 62.2735 0.935999C63.8815 0.935999 65.4055 1.092 66.8455 1.404C68.2855 1.692 69.5335 2.076 70.5895 2.556L68.3935 7.992C67.4815 7.536 66.5215 7.2 65.5135 6.984C64.5055 6.744 63.4375 6.624 62.3095 6.624C60.7735 6.624 59.5375 6.972 58.6015 7.668C57.6655 8.364 56.9815 9.288 56.5495 10.44C56.1415 11.592 55.9375 12.864 55.9375 14.256C55.9375 16.656 56.4415 18.492 57.4495 19.764C58.4575 21.012 59.8975 21.636 61.7695 21.636C62.1775 21.636 62.6695 21.612 63.2455 21.564C63.8455 21.492 64.3015 21.42 64.6135 21.348V17.316H60.0415V11.952Z" fill="black" fill-opacity="0.5"/>
</svg>
