<svg width="17" height="11" viewBox="0 0 17 11" fill="none" xmlns="http://www.w3.org/2000/svg">
<g clip-path="url(#clip0)">
<path d="M15.441 0.099917H0.759006C0.586781 0.097512 0.420643 0.163558 0.297082 0.283556C0.17352 0.403555 0.102639 0.567695 0.100006 0.739916L0.100006 9.45891C0.10118 9.54427 0.119157 9.62857 0.152912 9.70698C0.186667 9.78539 0.235537 9.8564 0.296733 9.91592C0.357928 9.97544 0.43025 10.0223 0.509567 10.0539C0.588885 10.0855 0.673645 10.1011 0.759006 10.0999H15.441C15.5264 10.1011 15.6111 10.0855 15.6904 10.0539C15.7698 10.0223 15.8421 9.97544 15.9033 9.91592C15.9645 9.8564 16.0133 9.78539 16.0471 9.70698C16.0809 9.62857 16.0988 9.54427 16.1 9.45891V0.739916C16.0974 0.567695 16.0265 0.403555 15.9029 0.283556C15.7794 0.163558 15.6132 0.097512 15.441 0.099917ZM0.759006 0.599917H15.441C15.4713 0.599897 15.5007 0.609604 15.525 0.627612C15.5493 0.645619 15.5672 0.67097 15.576 0.699915L8.10001 5.23992L0.625006 0.699915C0.634276 0.671693 0.652223 0.647113 0.676286 0.629695C0.70035 0.612276 0.7293 0.602907 0.759006 0.602915V0.599917ZM0.617006 1.27091L5.99501 4.53991L0.618006 8.68091L0.617006 1.27091ZM15.582 9.45291C15.5812 9.48987 15.5658 9.52502 15.5392 9.55068C15.5126 9.57635 15.477 9.59045 15.44 9.58992H0.759006C0.722045 9.59045 0.686372 9.57635 0.659769 9.55068C0.633167 9.52502 0.617794 9.48987 0.617006 9.45291V9.31891L6.46101 4.83991L7.96101 5.75191C8.00257 5.77726 8.05032 5.79068 8.09901 5.79068C8.14769 5.79068 8.19544 5.77726 8.23701 5.75191L9.73701 4.83991L15.58 9.32691L15.582 9.45291ZM15.582 8.67791L10.191 4.54991L15.582 1.30391V8.67791Z" fill="black" stroke="black" stroke-width="0.2"/>
</g>
<defs>
<clipPath id="clip0">
<rect width="16.2" height="10.2" fill="white"/>
</clipPath>
</defs>
</svg>
