<svg width="13" height="14" viewBox="0 0 13 14" fill="none" xmlns="http://www.w3.org/2000/svg">
<g clip-path="url(#clip0)">
<path d="M10.49 4.2C10.0747 4.2 9.66865 4.07684 9.32331 3.84609C8.97797 3.61534 8.70882 3.28736 8.54987 2.90364C8.39093 2.51991 8.34934 2.09767 8.43037 1.69031C8.51139 1.28295 8.71138 0.908767 9.00507 0.615077C9.29876 0.321386 9.67297 0.121381 10.0803 0.0403519C10.4877 -0.0406771 10.9099 0.000909895 11.2936 0.159854C11.6774 0.318798 12.0053 0.58796 12.2361 0.933303C12.4668 1.27865 12.59 1.68466 12.59 2.1C12.59 2.65696 12.3687 3.1911 11.9749 3.58493C11.5811 3.97875 11.047 4.2 10.49 4.2ZM10.49 0.836001C10.2409 0.836989 9.99776 0.911709 9.79111 1.05074C9.58447 1.18976 9.42363 1.38687 9.32886 1.6172C9.2341 1.84753 9.20967 2.10076 9.25864 2.34496C9.30762 2.58916 9.42779 2.81338 9.60404 2.98936C9.78029 3.16533 10.0047 3.28517 10.249 3.33376C10.4933 3.38235 10.7465 3.35752 10.9766 3.26239C11.2068 3.16726 11.4037 3.0061 11.5424 2.79923C11.6811 2.59237 11.7554 2.34906 11.756 2.1C11.755 1.76521 11.621 1.44453 11.3836 1.20845C11.1462 0.972369 10.8248 0.840204 10.49 0.841001V0.836001Z" fill="black"/>
<path d="M10.49 13.45C10.0747 13.45 9.66865 13.3269 9.32331 13.0961C8.97797 12.8654 8.70882 12.5374 8.54987 12.1536C8.39093 11.7699 8.34934 11.3477 8.43037 10.9403C8.51139 10.533 8.71138 10.1588 9.00507 9.86509C9.29876 9.5714 9.67297 9.37138 10.0803 9.29035C10.4877 9.20932 10.9099 9.25091 11.2936 9.40986C11.6774 9.5688 12.0053 9.83795 12.2361 10.1833C12.4668 10.5286 12.59 10.9347 12.59 11.35C12.59 11.907 12.3687 12.4411 11.9749 12.8349C11.5811 13.2288 11.047 13.45 10.49 13.45ZM10.49 10.086C10.2409 10.087 9.99776 10.1617 9.79111 10.3008C9.58447 10.4398 9.42363 10.6369 9.32886 10.8672C9.2341 11.0975 9.20967 11.3508 9.25864 11.595C9.30762 11.8392 9.42779 12.0634 9.60404 12.2394C9.78029 12.4153 10.0047 12.5352 10.249 12.5838C10.4933 12.6324 10.7465 12.6075 10.9766 12.5124C11.2068 12.4173 11.4037 12.2561 11.5424 12.0492C11.6811 11.8424 11.7554 11.5991 11.756 11.35C11.755 11.0152 11.621 10.6945 11.3836 10.4584C11.1462 10.2224 10.8248 10.0902 10.49 10.091V10.086Z" fill="black"/>
<path d="M2.35903 8.825C1.94369 8.825 1.53768 8.70184 1.19234 8.47109C0.846993 8.24034 0.577831 7.91237 0.418887 7.52865C0.259943 7.14492 0.218356 6.72267 0.299385 6.31531C0.380414 5.90795 0.58042 5.53378 0.87411 5.24009C1.1678 4.9464 1.54198 4.74638 1.94934 4.66535C2.3567 4.58432 2.77894 4.62591 3.16267 4.78486C3.54639 4.9438 3.87437 5.21297 4.10512 5.55831C4.33587 5.90365 4.45903 6.30967 4.45903 6.72501C4.45903 7.28197 4.23778 7.81611 3.84396 8.20994C3.45013 8.60376 2.91599 8.825 2.35903 8.825ZM2.35903 5.461C2.10989 5.4616 1.8665 5.53598 1.65959 5.67477C1.45268 5.81355 1.29152 6.01053 1.19645 6.24082C1.10138 6.47112 1.07666 6.72441 1.12541 6.96874C1.17417 7.21307 1.2942 7.4375 1.47038 7.61367C1.64655 7.78984 1.87096 7.90987 2.11529 7.95862C2.35962 8.00738 2.61292 7.98267 2.84321 7.88759C3.07351 7.79252 3.27048 7.63136 3.40927 7.42444C3.54806 7.21753 3.62244 6.97416 3.62303 6.72501C3.62198 6.39056 3.4883 6.07018 3.25134 5.83416C3.01438 5.59814 2.69348 5.46574 2.35903 5.46601V5.461Z" fill="black"/>
<path d="M3.82503 6.318C3.73225 6.31827 3.64199 6.28781 3.56834 6.23138C3.4947 6.17495 3.44182 6.09572 3.41795 6.00607C3.39408 5.91641 3.40057 5.82137 3.4364 5.73579C3.47224 5.65021 3.5354 5.57891 3.61603 5.53301L8.81602 2.567C8.91296 2.51184 9.02785 2.49744 9.1354 2.52698C9.24295 2.55652 9.33436 2.62757 9.38953 2.7245C9.44469 2.82144 9.45909 2.93632 9.42955 3.04387C9.40001 3.15142 9.32896 3.24284 9.23203 3.29801L4.03203 6.263C3.96892 6.29887 3.89762 6.31782 3.82503 6.318Z" fill="black"/>
<path d="M9.02609 10.943C8.95348 10.943 8.88212 10.924 8.81909 10.888L3.61909 7.92203C3.52229 7.86686 3.45136 7.77549 3.42192 7.66803C3.39247 7.56057 3.40692 7.4458 3.46209 7.349C3.51725 7.25219 3.60862 7.1813 3.71608 7.15185C3.82354 7.12241 3.93829 7.13685 4.03509 7.19202L9.23509 10.158C9.31537 10.2042 9.37819 10.2755 9.41384 10.3609C9.44949 10.4464 9.45597 10.5412 9.43229 10.6307C9.4086 10.7202 9.35606 10.7994 9.28281 10.8561C9.20956 10.9127 9.11968 10.9436 9.02709 10.944L9.02609 10.943Z" fill="black"/>
</g>
<defs>
<clipPath id="clip0">
<rect width="12.333" height="13.454" fill="white" transform="translate(0.259033)"/>
</clipPath>
</defs>
</svg>
