<svg width="18" height="12" viewBox="0 0 18 12" fill="none" xmlns="http://www.w3.org/2000/svg">
<g clip-path="url(#clip0)">
<path d="M15.1468 7.29928L15.1377 7.29085C15.0016 7.15585 14.583 6.72028 14.4427 6.53045C14.3725 6.44233 14.3341 6.33157 14.3341 6.21722C14.3341 6.10287 14.3725 5.9921 14.4427 5.90399C14.5992 5.60974 14.9132 5.1573 15.2454 4.67955C16.3102 3.14821 16.997 2.08724 16.8558 1.33422L16.7755 0.931348H12.8446C12.5909 1.85736 12.2264 2.74669 11.7594 3.5785C11.1336 4.76919 10.7211 5.14359 10.5768 5.20582H10.5545C10.4432 5.00372 10.3866 4.77413 10.3909 4.54139C10.3674 4.02914 10.3763 3.51584 10.4173 3.00478C10.4706 2.49005 10.4682 1.97074 10.4102 1.45656L10.2903 0.823774C9.59103 0.63297 8.86926 0.545976 8.14649 0.565387C6.8724 0.550622 6.49851 0.74784 6.31461 0.920801L5.705 1.49453L6.47311 1.77084C6.76572 1.87631 6.86224 1.99759 6.94251 2.59979C7.0061 3.14441 7.01393 3.69449 6.96588 4.24082C6.88561 5.08453 6.69155 5.24273 6.68241 5.25117C6.64888 5.23851 6.36643 5.10668 5.87671 3.99825C5.53634 3.22942 5.23865 2.31926 5.02122 1.65483C4.7723 0.894435 4.81802 1.0558 4.69 0.697217H0.888062L1.13394 1.37852C1.86471 3.76021 2.95379 6.00694 4.36081 8.03542C5.00019 8.89836 5.82763 9.59157 6.7752 10.0582C7.72276 10.5247 8.76342 10.7514 9.81174 10.7195H10.2801V10.2185C10.2672 9.86063 10.3055 9.50271 10.3939 9.15651C10.4411 9.01088 10.5002 8.86974 10.5707 8.73465C10.6723 8.53533 10.7648 8.45095 10.8176 8.4383C10.9016 8.44144 10.9813 8.4772 11.0411 8.53849C11.3053 8.76955 11.5408 9.03384 11.7422 9.32525C12.0505 9.79766 12.4553 10.1938 12.9279 10.4854C13.2797 10.6396 13.6574 10.7203 14.0394 10.7227H16.871C16.8194 10.0612 16.6401 9.41729 16.3439 8.8292C16.0477 8.2411 15.6406 7.72082 15.1468 7.29928V7.29928Z" stroke="black" stroke-linecap="round" stroke-linejoin="round"/>
</g>
<defs>
<clipPath id="clip0">
<rect width="17" height="12" fill="white" transform="translate(0.380005)"/>
</clipPath>
</defs>
</svg>
