<svg width="80" height="80" viewBox="0 0 80 80" fill="none" xmlns="http://www.w3.org/2000/svg">
<g clip-path="url(#clip0)">
<path d="M55.7806 24.5757C55.4906 24.5758 55.2125 24.6912 55.0075 24.8963L35.9587 43.9451L24.9962 32.9819C24.7873 32.7843 24.5107 32.6742 24.2231 32.6742C23.9356 32.6742 23.6589 32.7843 23.45 32.9819L19.0306 37.4019C18.8257 37.607 18.7105 37.8851 18.7105 38.1751C18.7105 38.465 18.8257 38.7431 19.0306 38.9482L35.1875 55.1038C35.289 55.2054 35.4095 55.2861 35.5421 55.3411C35.6748 55.3961 35.817 55.4244 35.9606 55.4244C36.1042 55.4244 36.2464 55.3961 36.3791 55.3411C36.5118 55.2861 36.6323 55.2054 36.7337 55.1038L60.9731 30.8626C61.1781 30.6574 61.2933 30.3792 61.2933 30.0891C61.2933 29.7991 61.1781 29.5209 60.9731 29.3157L56.5537 24.8963C56.3487 24.6912 56.0706 24.5758 55.7806 24.5757ZM35.9587 52.7838L21.3506 38.1751L24.2256 35.3001L35.1875 46.2644C35.289 46.3661 35.4095 46.4467 35.5421 46.5017C35.6748 46.5567 35.817 46.585 35.9606 46.585C36.1042 46.585 36.2464 46.5567 36.3791 46.5017C36.5118 46.4467 36.6323 46.3661 36.7337 46.2644L55.7806 27.2163L58.6556 30.0913L35.9587 52.7838Z" fill="black"/>
<path d="M40 10.2075C34.1076 10.2075 28.3475 11.9548 23.4482 15.2285C18.5488 18.5021 14.7302 23.1551 12.4753 28.5989C10.2204 34.0428 9.63041 40.0331 10.78 45.8122C11.9295 51.5914 14.767 56.8999 18.9335 61.0665C23.1001 65.2331 28.4086 68.0705 34.1878 69.2201C39.967 70.3696 45.9572 69.7796 51.4011 67.5247C56.845 65.2698 61.4979 61.4512 64.7716 56.5518C68.0452 51.6525 69.7925 45.8924 69.7925 40C69.7836 32.1013 66.6419 24.5286 61.0566 18.9434C55.4714 13.3582 47.8987 10.2165 40 10.2075ZM40 67.605C34.5402 67.605 29.2031 65.986 24.6635 62.9527C20.1239 59.9195 16.5857 55.6081 14.4963 50.564C12.407 45.5198 11.8603 39.9694 12.9254 34.6146C13.9906 29.2597 16.6197 24.341 20.4803 20.4803C24.341 16.6197 29.2597 13.9906 34.6145 12.9254C39.9694 11.8603 45.5198 12.407 50.564 14.4963C55.6081 16.5857 59.9194 20.1239 62.9527 24.6635C65.986 29.2031 67.605 34.5403 67.605 40C67.5967 47.3188 64.6857 54.3354 59.5105 59.5106C54.3354 64.6857 47.3188 67.5967 40 67.605Z" fill="black"/>
<path d="M78.7681 43.5082C79.5712 42.5153 80.0094 41.277 80.0094 40C80.0094 38.7231 79.5712 37.4847 78.7681 36.4919L76.9756 34.2544C76.632 33.825 76.3968 33.3192 76.2899 32.7798C76.183 32.2403 76.2074 31.683 76.3612 31.155L77.1612 28.4107C77.5126 27.1835 77.4378 25.8735 76.949 24.6943C76.4603 23.5152 75.5864 22.5364 74.47 21.9175L71.9656 20.5425C71.4832 20.2783 71.0715 19.9019 70.7652 19.445C70.459 18.9881 70.2673 18.4642 70.2062 17.9175L69.8937 15.0707C69.76 13.8001 69.1942 12.6139 68.2908 11.7105C67.3874 10.8071 66.2012 10.2413 64.9306 10.1075L62.0837 9.79504C61.5371 9.73424 61.0132 9.54266 60.5563 9.23653C60.0994 8.93039 59.7229 8.5187 59.4587 8.03629L58.0837 5.53129C57.4744 4.40573 56.4966 3.52396 55.3142 3.03393C54.1318 2.54391 52.8169 2.47545 51.59 2.84004L48.8462 3.63942C48.318 3.79293 47.7605 3.81719 47.2209 3.71016C46.6813 3.60313 46.1753 3.36794 45.7456 3.02442L43.5081 1.23192C42.5151 0.429143 41.2769 -0.00878906 40 -0.00878906C38.7231 -0.00878906 37.4848 0.429143 36.4919 1.23192L34.2544 3.02442C33.8245 3.36722 33.3188 3.60191 32.7795 3.70882C32.2402 3.81572 31.6831 3.7917 31.155 3.63879L28.4106 2.83879C27.1835 2.48724 25.8734 2.56194 24.6942 3.05071C23.5149 3.53948 22.5361 4.41345 21.9175 5.53004L20.5425 8.03442C20.2783 8.51685 19.9018 8.92858 19.4449 9.23481C18.988 9.54104 18.4641 9.73277 17.9175 9.79379L15.0706 10.1063C13.8 10.24 12.6139 10.8059 11.7105 11.7093C10.8071 12.6127 10.2412 13.7988 10.1075 15.0694L9.795 17.9163C9.73419 18.4629 9.54262 18.9869 9.23648 19.4438C8.93035 19.9007 8.51866 20.2771 8.03625 20.5413L5.53125 21.9163C4.40593 22.5259 3.52438 23.5038 3.03439 24.6861C2.5444 25.8684 2.47577 27.1832 2.84 28.41L3.64063 31.1532C3.79414 31.6814 3.8184 32.2389 3.71137 32.7785C3.60433 33.3181 3.36915 33.8241 3.02563 34.2538L1.23313 36.4913C0.430024 37.4841 -0.00811768 38.7224 -0.00811768 39.9994C-0.00811768 41.2764 0.430024 42.5147 1.23313 43.5075L3.02563 45.745C3.36921 46.1744 3.60441 46.6802 3.71134 47.2197C3.81827 47.7591 3.7938 48.3164 3.64 48.8444L2.84 51.5888C2.48842 52.8159 2.56297 54.1259 3.05148 55.3052C3.54 56.4845 4.41367 57.4635 5.53 58.0825L8.03438 59.4575C8.5168 59.7217 8.92853 60.0982 9.23476 60.5551C9.541 61.012 9.73273 61.5359 9.79375 62.0825L10.1063 64.9294C10.24 66.2 10.8058 67.3862 11.7092 68.2896C12.6126 69.193 13.7988 69.7588 15.0694 69.8925L17.9163 70.205C18.4629 70.2658 18.9868 70.4574 19.4437 70.7636C19.9006 71.0697 20.2771 71.4814 20.5412 71.9638L21.9163 74.4688C22.5255 75.5944 23.5034 76.4761 24.6858 76.9661C25.8682 77.4562 27.1831 77.5246 28.41 77.16L31.1531 76.3594C31.6814 76.2064 32.2388 76.1824 32.7783 76.2894C33.3179 76.3964 33.8238 76.6313 34.2537 76.9744L36.4912 78.7669C37.4841 79.57 38.7224 80.0082 39.9994 80.0082C41.2764 80.0082 42.5147 79.57 43.5075 78.7669L45.745 76.9744C46.1745 76.631 46.6803 76.3959 47.2197 76.2889C47.7591 76.182 48.3164 76.2064 48.8444 76.36L51.5887 77.16C52.8155 77.5242 54.1303 77.4556 55.3124 76.9656C56.4946 76.4756 57.4724 75.5941 58.0819 74.4688L59.4569 71.9644C59.7211 71.482 60.0975 71.0703 60.5544 70.764C61.0113 70.4578 61.5352 70.2661 62.0819 70.205L64.9287 69.8925C66.1993 69.7588 67.3855 69.193 68.2889 68.2896C69.1923 67.3862 69.7582 66.2 69.8919 64.9294L70.2044 62.0825C70.2652 61.5359 70.4567 61.012 70.7629 60.5551C71.069 60.0981 71.4807 59.7217 71.9631 59.4575L74.4681 58.0825C75.5934 57.473 76.475 56.4951 76.965 55.3128C77.455 54.1305 77.5236 52.8157 77.1594 51.5888L76.3587 48.8457C76.2052 48.3174 76.181 47.76 76.288 47.2203C76.395 46.6807 76.6302 46.1747 76.9737 45.745L78.7681 43.5082ZM75.2681 44.3788C74.7052 45.0827 74.3198 45.9117 74.1444 46.7958C73.9691 47.68 74.0089 48.5933 74.2606 49.4588L75.0619 52.2019C75.284 52.9505 75.242 53.7527 74.9429 54.474C74.6439 55.1953 74.106 55.7919 73.4194 56.1638L70.9137 57.5388C70.1227 57.9723 69.4479 58.5901 68.9463 59.3398C68.4448 60.0895 68.1313 60.9491 68.0325 61.8457L67.72 64.6925C67.6379 65.4677 67.2925 66.1913 66.7413 66.7426C66.19 67.2938 65.4664 67.6392 64.6912 67.7213L61.8437 68.0338C60.9473 68.133 60.0879 68.4467 59.3383 68.9483C58.5887 69.4499 57.9711 70.1248 57.5375 70.9157L56.1625 73.4207C55.7904 74.1069 55.1939 74.6445 54.4728 74.9435C53.7517 75.2425 52.9498 75.2848 52.2012 75.0632L49.4575 74.2625C48.5922 74.0104 47.6789 73.9702 46.7948 74.1455C45.9107 74.3207 45.0818 74.7062 44.3781 75.2694L42.1406 77.0619C41.5347 77.5523 40.7789 77.8198 39.9994 77.8198C39.2199 77.8198 38.464 77.5523 37.8581 77.0619L35.6206 75.2694C34.9167 74.7064 34.0878 74.3209 33.2036 74.1456C32.3195 73.9702 31.4061 74.0101 30.5406 74.2619L27.7981 75.0625C27.0495 75.2839 26.2476 75.2416 25.5264 74.9426C24.8053 74.6437 24.2086 74.1062 23.8362 73.42L22.4612 70.9144C22.0277 70.1234 21.4099 69.4486 20.6602 68.947C19.9105 68.4455 19.051 68.132 18.1544 68.0332L15.3075 67.7207C14.5323 67.6386 13.8087 67.2931 13.2575 66.7419C12.7063 66.1907 12.3608 65.4671 12.2788 64.6919L11.9663 61.8444C11.8671 60.9479 11.5534 60.0886 11.0517 59.339C10.5501 58.5894 9.87528 57.9717 9.08438 57.5382L6.57938 56.1632C5.89827 55.7857 5.36517 55.1885 5.067 54.4691C4.76883 53.7498 4.72318 52.9506 4.9375 52.2019L5.73813 49.4582C5.99006 48.5928 6.0301 47.6796 5.85486 46.7955C5.67961 45.9115 5.29423 45.0826 4.73125 44.3788L2.9375 42.1413C2.44736 41.5353 2.17997 40.7795 2.17997 40C2.17997 39.2206 2.44736 38.4648 2.9375 37.8588L4.73 35.6213C5.29296 34.9174 5.67836 34.0884 5.85371 33.2043C6.02905 32.3201 5.9892 31.4068 5.7375 30.5413L4.9375 27.7982C4.7154 27.0496 4.75739 26.2474 5.05643 25.5261C5.35547 24.8047 5.89338 24.2082 6.58 23.8363L9.08562 22.4613C9.87663 22.0278 10.5515 21.41 11.053 20.6603C11.5546 19.9106 11.8681 19.051 11.9669 18.1544L12.2794 15.3075C12.362 14.532 12.7083 13.8083 13.2604 13.2574C13.8124 12.7065 14.5368 12.3617 15.3125 12.2807L18.16 11.9682C19.0565 11.869 19.9159 11.5553 20.6654 11.0537C21.415 10.552 22.0327 9.8772 22.4662 9.08629L23.8412 6.58129C24.2186 5.90108 24.815 5.36848 25.5333 5.07006C26.2517 4.77164 27.0499 4.72494 27.7981 4.93754L30.5419 5.73817C31.4072 5.99021 32.3205 6.0303 33.2045 5.85506C34.0886 5.67981 34.9175 5.29437 35.6212 4.73129L37.8587 2.93754C38.4647 2.4473 39.2206 2.17983 40 2.17983C40.7794 2.17983 41.5353 2.4473 42.1413 2.93754L44.3787 4.73004C45.0828 5.29267 45.9118 5.67787 46.7959 5.85321C47.68 6.02854 48.5932 5.98887 49.4588 5.73754L52.2019 4.93754C52.9505 4.71628 53.7524 4.75867 54.4735 5.05763C55.1946 5.35659 55.7913 5.894 56.1637 6.58004L57.5387 9.08567C57.9723 9.87667 58.5901 10.5515 59.3398 11.0531C60.0895 11.5546 60.949 11.8681 61.8456 11.9669L64.6925 12.2794C65.4677 12.3615 66.1913 12.7069 66.7425 13.2582C67.2937 13.8094 67.6392 14.533 67.7212 15.3082L68.0337 18.1557C68.1329 19.0521 68.4466 19.9115 68.9483 20.6611C69.4499 21.4107 70.1247 22.0284 70.9156 22.4619L73.4206 23.8369C74.1018 24.2144 74.6349 24.8115 74.9332 25.5309C75.2315 26.2503 75.2773 27.0494 75.0631 27.7982L74.2625 30.5419C74.0106 31.4072 73.9705 32.3205 74.1458 33.2045C74.321 34.0886 74.7064 34.9175 75.2694 35.6213L77.0619 37.8588C77.552 38.4648 77.8194 39.2206 77.8194 40C77.8194 40.7795 77.552 41.5353 77.0619 42.1413L75.2681 44.3788Z" fill="black"/>
</g>
<defs>
<clipPath id="clip0">
<rect width="80" height="80" fill="white"/>
</clipPath>
</defs>
</svg>
